<?xml version="1.0" standalone="no"?>
<!DOCTYPE svg PUBLIC "-//W3C//DTD SVG 20010904//EN"
 "http://www.w3.org/TR/2001/REC-SVG-20010904/DTD/svg10.dtd">
<svg version="1.0" xmlns="http://www.w3.org/2000/svg"
 width="512.000000pt" height="512.000000pt" viewBox="0 0 512.000000 512.000000"
 preserveAspectRatio="xMidYMid meet">
<metadata>
Created by potrace 1.14, written by Peter Selinger 2001-2017
</metadata>
<g transform="translate(0.000000,512.000000) scale(0.100000,-0.100000)"
fill="#000000" stroke="none">
<path d="M0 3883 l0 -1238 34 61 c49 92 94 149 203 255 121 119 204 185 372
294 72 46 181 130 243 186 62 55 205 173 318 262 232 183 317 262 348 328 53
111 4 231 -120 295 -90 46 -167 58 -363 58 -197 0 -282 -9 -545 -56 -198 -35
-232 -33 -285 13 -91 80 -34 207 172 379 181 151 379 270 593 357 l105 42
-537 1 -538 0 0 -1237z"/>
<path d="M2208 5100 c141 -51 465 -230 620 -344 85 -63 344 -321 447 -446 122
-147 247 -318 380 -520 68 -102 136 -197 151 -212 40 -37 83 -53 221 -83 236
-51 557 -156 713 -233 87 -42 210 -133 264 -193 21 -22 55 -68 77 -101 l39
-61 0 1106 0 1107 -1482 -1 c-1462 0 -1482 -1 -1430 -19z"/>
<path d="M1466 5070 c-357 -41 -721 -207 -1034 -470 -64 -54 -173 -180 -155
-180 4 0 76 13 158 29 292 58 365 66 600 65 195 0 229 -3 299 -22 164 -45 261
-113 313 -220 39 -80 45 -207 12 -277 -35 -76 -196 -230 -424 -405 -110 -85
-245 -198 -300 -252 -64 -63 -131 -117 -185 -149 -197 -119 -409 -284 -497
-387 -221 -261 -230 -536 -24 -742 74 -73 150 -117 261 -151 61 -19 99 -23
202 -24 81 0 127 -4 125 -10 -9 -26 -95 -76 -182 -105 -112 -37 -178 -79 -220
-138 -27 -39 -30 -53 -36 -145 -3 -56 -8 -109 -12 -117 -4 -8 -64 -69 -133
-134 -69 -65 -150 -149 -180 -186 l-54 -67 0 -492 0 -491 2229 0 2230 0 98 62
c54 34 136 85 183 114 47 29 151 96 233 149 l147 96 0 50 0 51 -117 -63 c-65
-34 -250 -138 -412 -231 -162 -92 -298 -168 -302 -168 -4 0 -10 36 -14 81 -4
44 -13 103 -20 130 -13 48 -13 49 8 49 19 1 94 27 322 114 54 20 204 96 452
227 l83 44 0 108 c0 59 -2 107 -4 107 -2 0 -53 -31 -113 -68 -145 -92 -310
-182 -442 -242 -162 -73 -144 -74 -237 22 -208 217 -289 440 -301 828 l-6 185
162 92 c280 160 523 331 616 435 176 195 265 406 238 564 -30 173 -138 301
-343 403 -188 95 -540 203 -829 256 -74 14 -135 26 -136 28 -1 1 -23 40 -50
87 -70 124 -239 377 -358 536 -252 336 -503 586 -694 689 -32 18 -101 58 -153
90 -182 112 -404 198 -590 229 -119 21 -310 28 -414 16z m-87 -435 c293 -51
484 -158 526 -293 6 -20 -2 -17 -57 23 -194 144 -417 206 -898 251 -68 6 -72
8 -42 16 112 30 311 31 471 3z m511 -677 c-15 -80 -40 -133 -87 -193 -42 -52
-126 -109 -178 -120 l-30 -7 35 28 c126 103 181 176 233 313 35 95 48 85 27
-21z m-285 -426 c-113 -110 -134 -122 -227 -138 -46 -8 -96 -19 -113 -24 l-30
-9 24 17 c35 25 394 221 406 222 5 0 -22 -31 -60 -68z m-80 -169 c-22 -14 -78
-57 -123 -94 -56 -46 -96 -71 -120 -75 -33 -6 -223 -61 -277 -80 -69 -24 276
178 390 228 102 46 104 46 140 47 l30 1 -40 -27z m2033 -515 c-60 -74 -62 -81
-33 -135 37 -70 32 -114 -26 -250 -33 -78 -33 -39 1 48 37 97 40 155 11 203
-12 18 -21 42 -21 54 0 20 89 136 98 127 3 -2 -11 -24 -30 -47z m-811 -42 c89
0 164 -4 167 -7 16 -16 -98 -250 -183 -374 -34 -50 -64 -106 -67 -125 -6 -34
-10 -37 -92 -70 -48 -19 -89 -36 -92 -38 -4 -1 -17 17 -30 40 -13 24 -48 66
-77 95 -40 39 -54 61 -59 91 l-6 39 52 7 c51 7 150 44 150 56 0 3 -27 12 -61
19 -43 8 -71 21 -95 44 l-35 32 71 116 72 116 61 -20 c51 -16 92 -20 224 -21z
m563 -16 c35 -12 36 -14 54 -95 10 -46 15 -92 11 -105 -4 -13 -25 -42 -47 -66
l-40 -44 26 -10 c21 -8 25 -14 21 -37 -2 -15 -6 -53 -9 -84 -3 -31 -12 -71
-20 -90 -51 -121 -55 -129 -71 -123 -8 3 -15 12 -15 19 0 7 -13 24 -30 38 -26
22 -27 25 -10 30 10 3 28 20 39 38 29 47 27 145 -3 306 -14 71 -28 151 -31
180 l-7 52 39 4 c41 4 41 4 93 -13z m-206 -47 c4 -32 18 -121 32 -198 28 -150
33 -220 17 -236 -12 -12 -73 0 -73 14 0 5 -12 35 -27 66 -27 54 -28 60 -27
222 1 92 5 172 8 178 4 6 20 11 35 11 27 0 29 -3 35 -57z m506 -85 c16 -63 7
-217 -15 -256 l-14 -27 5 30 c21 125 21 217 -2 294 -5 16 -4 22 3 18 6 -4 17
-30 23 -59z m-1720 -141 c0 -8 27 -52 59 -98 74 -106 88 -150 72 -222 -15 -69
-51 -129 -154 -261 -105 -134 -140 -200 -145 -276 -5 -70 8 -113 55 -181 44
-64 37 -74 -12 -17 -61 71 -70 94 -70 183 0 71 4 88 36 155 20 41 73 125 119
185 99 132 140 212 140 275 0 48 -14 79 -71 162 -38 55 -57 108 -39 108 5 0
10 -6 10 -13z m-469 -285 c-11 -22 -61 -76 -110 -121 -95 -87 -111 -115 -111
-189 0 -38 -2 -43 -15 -32 -24 20 -28 72 -10 116 15 38 256 287 263 272 2 -3
-6 -24 -17 -46z m-270 -109 c-10 -21 -35 -54 -55 -72 l-36 -35 0 26 c0 18 17
45 52 83 56 61 72 60 39 -2z m1963 -153 c43 0 168 -36 224 -64 51 -26 88 -57
113 -96 l17 -25 7 38 c5 23 3 49 -5 67 -17 41 -11 44 30 12 18 -14 39 -27 46
-28 29 -4 78 -52 97 -94 12 -27 22 -77 25 -123 l5 -78 22 21 23 21 6 -24 c3
-14 42 -64 86 -112 101 -111 125 -159 124 -245 -1 -53 -8 -83 -42 -162 -67
-154 -51 -238 51 -283 l29 -12 -47 -41 c-58 -51 -130 -76 -215 -75 -72 0 -142
25 -174 62 -22 24 -12 27 24 6 33 -19 114 -19 129 -1 10 12 7 18 -18 31 -88
45 -78 147 29 305 79 117 91 164 58 230 -18 34 -43 58 -108 102 -93 63 -124
95 -141 146 -18 54 -61 124 -70 115 -5 -5 -12 -30 -15 -56 -13 -90 65 -201
194 -281 66 -40 86 -70 76 -112 -4 -14 -35 -68 -70 -120 -35 -52 -69 -114 -75
-137 -7 -23 -16 -46 -21 -52 -16 -18 -8 34 23 152 37 143 40 203 10 261 -28
56 -82 93 -189 132 -175 63 -187 81 -179 254 l5 119 -41 -63 c-38 -58 -41 -67
-42 -134 0 -113 47 -179 158 -220 23 -9 69 -25 102 -37 76 -28 120 -71 130
-126 7 -44 -21 -181 -73 -351 -20 -68 -24 -97 -20 -165 5 -87 18 -123 71 -191
l31 -39 -39 7 c-154 27 -310 115 -362 203 -22 37 -24 50 -18 95 11 79 24 103
24 47 1 -59 51 -160 96 -195 37 -28 90 -40 131 -30 26 7 26 7 -20 36 -90 58
-102 108 -64 283 43 205 25 286 -84 386 -156 141 -213 220 -226 313 -3 28 -8
36 -16 28 -16 -16 -11 -186 7 -245 l16 -50 -25 30 c-13 17 -39 59 -57 95 -29
59 -32 73 -32 156 0 103 -8 108 -45 23 -43 -101 -35 -241 19 -348 31 -61 110
-139 181 -180 36 -20 71 -49 79 -63 14 -24 13 -32 -2 -82 -10 -31 -21 -56 -26
-56 -4 0 -12 15 -19 34 -20 54 -69 115 -119 146 -26 17 -48 28 -51 26 -2 -3
10 -22 27 -43 50 -63 85 -150 89 -225 2 -38 1 -68 -2 -68 -3 0 -20 15 -36 33
l-29 32 -1 -28 c0 -38 -21 -117 -30 -117 -14 0 -27 25 -40 78 -7 32 -20 58
-33 67 -21 15 -21 15 9 15 33 0 84 29 52 30 -21 0 -68 21 -68 30 0 4 12 13 28
20 l27 13 -30 10 c-42 13 -82 54 -96 94 -7 23 -9 73 -4 152 9 148 -1 190 -61
250 -24 24 -44 47 -44 52 0 4 -21 25 -46 47 -55 47 -55 62 3 138 l38 49 6 -42
c7 -57 15 -62 29 -19 15 47 63 94 203 199 65 49 125 100 134 114 l17 26 39
-47 c31 -37 45 -46 71 -46z m-2619 12 c87 -25 284 -19 423 15 17 4 22 1 22
-15 0 -28 -19 -33 -157 -39 -161 -8 -327 19 -368 60 -7 7 -3 7 10 2 11 -4 43
-14 70 -23z m955 -71 c0 -41 39 -93 93 -121 47 -25 62 -43 51 -62 -4 -5 -13
-4 -22 5 -10 8 -45 29 -78 46 -73 39 -89 65 -74 122 13 45 30 52 30 10z m-385
-156 c7 -96 2 -145 -15 -145 -6 0 -10 12 -10 26 0 15 -5 55 -12 89 -9 50 -8
70 2 94 7 17 16 31 20 31 5 0 11 -43 15 -95z m946 -210 c53 -55 96 -131 83
-144 -5 -6 -142 142 -170 183 -26 38 -37 81 -28 109 6 18 10 14 30 -31 13 -30
50 -81 85 -117z m-641 70 c0 -8 23 -58 50 -110 28 -52 50 -108 50 -123 l-1
-27 -16 30 c-8 17 -30 46 -49 65 -18 19 -38 48 -43 63 -14 36 -14 117 -1 117
6 0 10 -7 10 -15z m435 -296 c4 -11 38 -52 77 -91 38 -38 67 -72 64 -75 -9 -9
-114 57 -140 88 -17 20 -26 43 -26 65 0 38 15 46 25 13z m263 -836 c-10 -2
-26 -2 -35 0 -10 3 -2 5 17 5 19 0 27 -2 18 -5z"/>
<path d="M5097 2386 c-34 -82 -138 -227 -231 -321 -105 -107 -232 -203 -431
-326 -284 -177 -281 -174 -279 -319 3 -219 60 -416 166 -576 82 -122 145 -136
288 -64 117 59 274 150 403 233 l107 70 0 674 c0 370 -1 673 -2 673 -2 0 -11
-20 -21 -44z"/>
<path d="M1 1675 l-1 -490 109 111 c118 119 111 108 154 279 8 33 27 88 41
123 36 85 27 113 -58 181 -87 69 -191 182 -220 238 l-25 48 0 -490z"/>
<path d="M5100 600 c-9 -6 -10 -10 -3 -10 6 0 15 5 18 10 8 12 4 12 -15 0z"/>
<path d="M5050 580 c-8 -5 -10 -10 -5 -10 6 0 17 5 25 10 8 5 11 10 5 10 -5 0
-17 -5 -25 -10z"/>
<path d="M4680 385 c-14 -8 -20 -14 -15 -14 6 0 21 6 35 14 14 8 21 14 15 14
-5 0 -21 -6 -35 -14z"/>
<path d="M5043 272 c-39 -26 -105 -67 -145 -91 -40 -24 -118 -74 -172 -110
l-100 -66 173 -3 174 -2 73 45 74 46 0 115 c0 63 -1 114 -2 114 -2 -1 -35 -22
-75 -48z"/>
<path d="M4420 270 c-19 -11 -30 -19 -25 -19 6 0 26 8 45 19 19 11 31 19 25
19 -5 0 -26 -8 -45 -19z"/>
</g>
</svg>
